<svg xmlns="http://www.w3.org/2000/svg" width="640" height="160" viewBox="0 0 640 160">
  <g transform="translate(0.5,0.5)" text-anchor="middle" font-size="14" font-family="sans-serif" font-weight="normal">
    <g transform="translate(4,94)">
      <g stroke="black" stroke-width="1" stroke-linecap="round">
        <line x2="631"/>
        <line y2="50"/>
        <line x2="631" y1="50" y2="50"/>
        <line x1="631" x2="631" y2="50"/>
        <line x1="592" x2="592" y2="6"/>
        <line x1="592" x2="592" y1="50" y2="44"/>
        <line x1="552" x2="552" y2="6"/>
        <line x1="552" x2="552" y1="50" y2="44"/>
        <line x1="513" x2="513" y2="6"/>
        <line x1="513" x2="513" y1="50" y2="44"/>
        <line x1="473" x2="473" y2="6"/>
        <line x1="473" x2="473" y1="50" y2="44"/>
        <line x1="434" x2="434" y2="6"/>
        <line x1="434" x2="434" y1="50" y2="44"/>
        <line x1="394" x2="394" y2="6"/>
        <line x1="394" x2="394" y1="50" y2="44"/>
        <line x1="355" x2="355" y2="6"/>
        <line x1="355" x2="355" y1="50" y2="44"/>
        <line x1="316" x2="316" y2="50"/>
        <line x1="276" x2="276" y2="6"/>
        <line x1="276" x2="276" y1="50" y2="44"/>
        <line x1="237" x2="237" y2="6"/>
        <line x1="237" x2="237" y1="50" y2="44"/>
        <line x1="197" x2="197" y2="6"/>
        <line x1="197" x2="197" y1="50" y2="44"/>
        <line x1="158" x2="158" y2="6"/>
        <line x1="158" x2="158" y1="50" y2="44"/>
        <line x1="118" x2="118" y2="6"/>
        <line x1="118" x2="118" y1="50" y2="44"/>
        <line x1="79" x2="79" y2="6"/>
        <line x1="79" x2="79" y1="50" y2="44"/>
        <line x1="39" x2="39" y2="50"/>
      </g>
      <g>
        <g>
          <rect x="39" width="276" height="50" style="fill-opacity:0.1"/>
          <rect width="39" height="50" style="fill-opacity:0.1;fill:hsl(170,100%,50%)"/>
        </g>
        <g transform="translate(20,-9)">
          <g transform="translate(592)">
            <text y="6">0</text>
          </g>
          <g transform="translate(316)">
            <text y="6">7</text>
          </g>
          <g transform="translate(276)">
            <text y="6">8</text>
          </g>
          <g transform="translate(39)">
            <text y="6">14</text>
          </g>
          <g transform="translate(0)">
            <text y="6">15</text>
          </g>
        </g>
        <g transform="translate(20,25)">
          <g transform="translate(454)">
            <text y="6">
              <tspan>IPO</tspan>
            </text>
          </g>
          <g transform="translate(0)">
            <text y="6">
              <tspan>BRK</tspan>
            </text>
          </g>
        </g>
        <g transform="translate(20,57)">
          <g transform="translate(454)">
            <text y="6">
              <tspan>RO</tspan>
            </text>
          </g>
          <g transform="translate(0)">
            <text y="6">
              <tspan>RW</tspan>
            </text>
          </g>
        </g>
      </g>
    </g>
    <g transform="translate(4,14)">
      <g stroke="black" stroke-width="1" stroke-linecap="round">
        <line x2="631"/>
        <line y2="50"/>
        <line x2="631" y1="50" y2="50"/>
        <line x1="631" x2="631" y2="50"/>
        <line x1="592" x2="592" y2="6"/>
        <line x1="592" x2="592" y1="50" y2="44"/>
        <line x1="552" x2="552" y2="6"/>
        <line x1="552" x2="552" y1="50" y2="44"/>
        <line x1="513" x2="513" y2="6"/>
        <line x1="513" x2="513" y1="50" y2="44"/>
        <line x1="473" x2="473" y2="50"/>
        <line x1="434" x2="434" y2="50"/>
        <line x1="394" x2="394" y2="6"/>
        <line x1="394" x2="394" y1="50" y2="44"/>
        <line x1="355" x2="355" y2="6"/>
        <line x1="355" x2="355" y1="50" y2="44"/>
        <line x1="316" x2="316" y2="50"/>
        <line x1="276" x2="276" y2="6"/>
        <line x1="276" x2="276" y1="50" y2="44"/>
        <line x1="237" x2="237" y2="6"/>
        <line x1="237" x2="237" y1="50" y2="44"/>
        <line x1="197" x2="197" y2="6"/>
        <line x1="197" x2="197" y1="50" y2="44"/>
        <line x1="158" x2="158" y2="6"/>
        <line x1="158" x2="158" y1="50" y2="44"/>
        <line x1="118" x2="118" y2="6"/>
        <line x1="118" x2="118" y1="50" y2="44"/>
        <line x1="79" x2="79" y2="6"/>
        <line x1="79" x2="79" y1="50" y2="44"/>
        <line x1="39" x2="39" y2="6"/>
        <line x1="39" x2="39" y1="50" y2="44"/>
      </g>
      <g>
        <g>
          <rect x="473" width="158" height="50" style="fill-opacity:0.1;fill:hsl(170,100%,50%)"/>
          <rect width="316" height="50" style="fill-opacity:0.1"/>
        </g>
        <g transform="translate(20,-9)">
          <g transform="translate(592)">
            <text y="6">16</text>
          </g>
          <g transform="translate(473)">
            <text y="6">19</text>
          </g>
          <g transform="translate(434)">
            <text y="6">20</text>
          </g>
          <g transform="translate(394)">
            <text y="6">21</text>
          </g>
          <g transform="translate(316)">
            <text y="6">23</text>
          </g>
          <g transform="translate(276)">
            <text y="6">24</text>
          </g>
          <g transform="translate(0)">
            <text y="6">31</text>
          </g>
        </g>
        <g transform="translate(20,25)">
          <g transform="translate(532)">
            <text y="6">
              <tspan>BRK</tspan>
            </text>
          </g>
          <g transform="translate(434)">
            <text y="6">
              <tspan>CPK</tspan>
            </text>
          </g>
          <g transform="translate(355)">
            <text y="6">
              <tspan>Clear</tspan>
            </text>
          </g>
        </g>
        <g transform="translate(20,57)">
          <g transform="translate(532)">
            <text y="6">
              <tspan>RW</tspan>
            </text>
          </g>
        </g>
      </g>
    </g>
  </g>
</svg>

