<svg xmlns="http://www.w3.org/2000/svg" width="1500" height="80" viewBox="0 0 1500 80">
  <g transform="translate(0.5,0.5)" text-anchor="middle" font-size="14" font-family="sans-serif" font-weight="normal">
    <g transform="translate(4,14)">
      <g stroke="black" stroke-width="1" stroke-linecap="round">
        <line x2="1491"/>
        <line y2="64"/>
        <line x2="1491" y1="64" y2="64"/>
        <line x1="1491" x2="1491" y2="64"/>
        <line x1="1444" x2="1444" y2="8"/>
        <line x1="1444" x2="1444" y1="64" y2="56"/>
        <line x1="1398" x2="1398" y2="8"/>
        <line x1="1398" x2="1398" y1="64" y2="56"/>
        <line x1="1351" x2="1351" y2="8"/>
        <line x1="1351" x2="1351" y1="64" y2="56"/>
        <line x1="1305" x2="1305" y2="8"/>
        <line x1="1305" x2="1305" y1="64" y2="56"/>
        <line x1="1258" x2="1258" y2="8"/>
        <line x1="1258" x2="1258" y1="64" y2="56"/>
        <line x1="1211" x2="1211" y2="8"/>
        <line x1="1211" x2="1211" y1="64" y2="56"/>
        <line x1="1165" x2="1165" y2="8"/>
        <line x1="1165" x2="1165" y1="64" y2="56"/>
        <line x1="1118" x2="1118" y2="8"/>
        <line x1="1118" x2="1118" y1="64" y2="56"/>
        <line x1="1072" x2="1072" y2="8"/>
        <line x1="1072" x2="1072" y1="64" y2="56"/>
        <line x1="1025" x2="1025" y2="8"/>
        <line x1="1025" x2="1025" y1="64" y2="56"/>
        <line x1="978" x2="978" y2="8"/>
        <line x1="978" x2="978" y1="64" y2="56"/>
        <line x1="932" x2="932" y2="8"/>
        <line x1="932" x2="932" y1="64" y2="56"/>
        <line x1="885" x2="885" y2="8"/>
        <line x1="885" x2="885" y1="64" y2="56"/>
        <line x1="839" x2="839" y2="8"/>
        <line x1="839" x2="839" y1="64" y2="56"/>
        <line x1="792" x2="792" y2="64"/>
        <line x1="746" x2="746" y2="8"/>
        <line x1="746" x2="746" y1="64" y2="56"/>
        <line x1="699" x2="699" y2="8"/>
        <line x1="699" x2="699" y1="64" y2="56"/>
        <line x1="652" x2="652" y2="8"/>
        <line x1="652" x2="652" y1="64" y2="56"/>
        <line x1="606" x2="606" y2="8"/>
        <line x1="606" x2="606" y1="64" y2="56"/>
        <line x1="559" x2="559" y2="8"/>
        <line x1="559" x2="559" y1="64" y2="56"/>
        <line x1="513" x2="513" y2="8"/>
        <line x1="513" x2="513" y1="64" y2="56"/>
        <line x1="466" x2="466" y2="8"/>
        <line x1="466" x2="466" y1="64" y2="56"/>
        <line x1="419" x2="419" y2="8"/>
        <line x1="419" x2="419" y1="64" y2="56"/>
        <line x1="373" x2="373" y2="8"/>
        <line x1="373" x2="373" y1="64" y2="56"/>
        <line x1="326" x2="326" y2="8"/>
        <line x1="326" x2="326" y1="64" y2="56"/>
        <line x1="280" x2="280" y2="8"/>
        <line x1="280" x2="280" y1="64" y2="56"/>
        <line x1="233" x2="233" y2="8"/>
        <line x1="233" x2="233" y1="64" y2="56"/>
        <line x1="186" x2="186" y2="8"/>
        <line x1="186" x2="186" y1="64" y2="56"/>
        <line x1="140" x2="140" y2="8"/>
        <line x1="140" x2="140" y1="64" y2="56"/>
        <line x1="93" x2="93" y2="8"/>
        <line x1="93" x2="93" y1="64" y2="56"/>
        <line x1="47" x2="47" y2="8"/>
        <line x1="47" x2="47" y1="64" y2="56"/>
      </g>
      <g>
        <g>
          <rect width="792" height="64" style="fill-opacity:0.1"/>
        </g>
        <g transform="translate(23,-9)">
          <g transform="translate(1444)">
            <text y="6">0</text>
          </g>
          <g transform="translate(792)">
            <text y="6">14</text>
          </g>
          <g transform="translate(746)">
            <text y="6">15</text>
          </g>
          <g transform="translate(0)">
            <text y="6">31</text>
          </g>
        </g>
        <g transform="translate(23,32)">
          <g transform="translate(1118)">
            <text y="6">
              <tspan>mvuwlength[n]</tspan>
            </text>
          </g>
        </g>
        <g transform="translate(23,71)"/>
      </g>
    </g>
  </g>
</svg>

